<svg width="32" height="32" viewBox="0 0 32 32" fill="none" xmlns="http://www.w3.org/2000/svg">
<path d="M29.5 24.5H2.5C2.36739 24.5 2.24021 24.4473 2.14645 24.3536C2.05268 24.2598 2 24.1326 2 24V4C2 3.86739 2.05268 3.74021 2.14645 3.64645C2.24021 3.55268 2.36739 3.5 2.5 3.5H29.5C29.6326 3.5 29.7598 3.55268 29.8536 3.64645C29.9473 3.74021 30 3.86739 30 4V24C30 24.1326 29.9473 24.2598 29.8536 24.3536C29.7598 24.4473 29.6326 24.5 29.5 24.5Z" fill="#FD5732"/>
<path d="M23 23.5C17.6957 23.5 12.6086 21.3929 8.85786 17.6421C5.10714 13.8914 3 8.80433 3 3.5H2.5C2.36739 3.5 2.24021 3.55268 2.14645 3.64645C2.05268 3.74021 2 3.86739 2 4V24C2 24.1326 2.05268 24.2598 2.14645 24.3536C2.24021 24.4473 2.36739 24.5 2.5 24.5H29.5C29.6326 24.5 29.7598 24.4473 29.8536 24.3536C29.9473 24.2598 30 24.1326 30 24V23.5H23Z" fill="#C21D03"/>
<path d="M27.5 22.5H4.5C4.36739 22.5 4.24021 22.4473 4.14645 22.3536C4.05268 22.2598 4 22.1326 4 22V6C4 5.86739 4.05268 5.74021 4.14645 5.64645C4.24021 5.55268 4.36739 5.5 4.5 5.5H27.5C27.6326 5.5 27.7598 5.55268 27.8536 5.64645C27.9473 5.74021 28 5.86739 28 6V22C28 22.1326 27.9473 22.2598 27.8536 22.3536C27.7598 22.4473 27.6326 22.5 27.5 22.5Z" fill="#FDFEFF"/>
<path d="M21 21.5C16.7565 21.5 12.6869 19.8143 9.68629 16.8137C6.68571 13.8131 5 9.74346 5 5.5H4.5C4.36739 5.5 4.24021 5.55268 4.14645 5.64645C4.05268 5.74021 4 5.86739 4 6V22C4 22.1326 4.05268 22.2598 4.14645 22.3536C4.24021 22.4473 4.36739 22.5 4.5 22.5H27.5C27.6326 22.5 27.7598 22.4473 27.8536 22.3536C27.9473 22.2598 28 22.1326 28 22V21.5H21Z" fill="#DFEAEF"/>
<path d="M23.5 11H22.5V18H23.5V11Z" fill="#FD5732"/>
<path d="M23 11.5H22.5V18.5H23V11.5Z" fill="#C21D03"/>
<path d="M24 21.5H22C21.8674 21.5 21.7402 21.4473 21.6464 21.3536C21.5527 21.2598 21.5 21.1326 21.5 21V17.5C21.5 17.3674 21.5527 17.2402 21.6464 17.1464C21.7402 17.0527 21.8674 17 22 17H24C24.1326 17 24.2598 17.0527 24.3536 17.1464C24.4473 17.2402 24.5 17.3674 24.5 17.5V21C24.5 21.1326 24.4473 21.2598 24.3536 21.3536C24.2598 21.4473 24.1326 21.5 24 21.5Z" fill="#F74E0C"/>
<path d="M23 20.5C22.8674 20.5 22.7402 20.4473 22.6464 20.3536C22.5527 20.2598 22.5 20.1326 22.5 20V17H22C21.8674 17 21.7402 17.0527 21.6464 17.1464C21.5527 17.2402 21.5 17.3674 21.5 17.5V21C21.5 21.1326 21.5527 21.2598 21.6464 21.3536C21.7402 21.4473 21.8674 21.5 22 21.5H24C24.1326 21.5 24.2598 21.4473 24.3536 21.3536C24.4473 21.2598 24.5 21.1326 24.5 21V20.5H23Z" fill="#CC2600"/>
<path d="M20.5 12H10.5V16.5C10.5001 16.5677 10.5139 16.6347 10.5406 16.697C10.5673 16.7592 10.6064 16.8153 10.6555 16.862C12.0965 18.2342 14.0101 18.9996 16 18.9996C17.9899 18.9996 19.9035 18.2342 21.3445 16.862C21.3936 16.8153 21.4327 16.7592 21.4594 16.697C21.4861 16.6347 21.4999 16.5677 21.5 16.5V12H20.5Z" fill="#FD5732"/>
<path d="M20.5 12H10.5V16.5C10.5001 16.5677 10.5139 16.6347 10.5406 16.697C10.5673 16.7592 10.6064 16.8153 10.6555 16.862C12.0965 18.2342 14.0101 18.9996 16 18.9996C17.9899 18.9996 19.9035 18.2342 21.3445 16.862C21.3936 16.8153 21.4327 16.7592 21.4594 16.697C21.4861 16.6347 21.4999 16.5677 21.5 16.5V12H20.5Z" fill="#FD5732"/>
<path d="M21.5 11.5H10.5V12.8825L15.4305 14.9C15.7948 15.0492 16.2032 15.0492 16.5675 14.9L21.5 12.8825V11.5Z" fill="#C21D03"/>
<path d="M16.0019 14.5105C15.937 14.5105 15.8728 14.4978 15.8129 14.473L8.45186 11.463C8.35985 11.4255 8.2811 11.3614 8.22567 11.2789C8.17023 11.1965 8.14062 11.0994 8.14062 11C8.14062 10.9006 8.17023 10.8035 8.22567 10.7211C8.2811 10.6386 8.35985 10.5745 8.45186 10.537L15.8154 7.527C15.9364 7.477 16.0723 7.477 16.1934 7.527L23.5569 10.537C23.6489 10.5745 23.7276 10.6386 23.7831 10.7211C23.8385 10.8035 23.8681 10.9006 23.8681 11C23.8681 11.0994 23.8385 11.1965 23.7831 11.2789C23.7276 11.3614 23.6489 11.4255 23.5569 11.463L16.1934 14.473C16.1327 14.4981 16.0676 14.5109 16.0019 14.5105Z" fill="#FD5732"/>
<path d="M26.5 28.5H5.5C4.30693 28.4987 3.16311 28.0241 2.31948 27.1805C1.47585 26.3369 1.00132 25.1931 1 24C1 23.8674 1.05268 23.7402 1.14645 23.6464C1.24021 23.5527 1.36739 23.5 1.5 23.5H30.5C30.6326 23.5 30.7598 23.5527 30.8536 23.6464C30.9473 23.7402 31 23.8674 31 24C30.9987 25.1931 30.5241 26.3369 29.6805 27.1805C28.8369 28.0241 27.6931 28.4987 26.5 28.5Z" fill="#FD5732"/>
<path d="M27.5 27.5H6.5C5.39369 27.4985 4.32662 27.09 3.50216 26.3523C2.6777 25.6146 2.15351 24.5993 2.0295 23.5H1.5C1.36739 23.5 1.24021 23.5527 1.14645 23.6464C1.05268 23.7402 1 23.8674 1 24C1.00132 25.1931 1.47585 26.3369 2.31948 27.1805C3.16311 28.0241 4.30693 28.4987 5.5 28.5H26.5C27.2104 28.4994 27.9106 28.3304 28.543 28.0067C29.1754 27.683 29.7221 27.2139 30.138 26.638C29.3724 27.1979 28.4485 27.4998 27.5 27.5Z" fill="#C21D03"/>
<path d="M19.5 25H12.5L11.5 23.5H20.5L19.5 25Z" fill="#FFC14D"/>
<path d="M12.3335 23.5H11.5L12.5 25H19.5L19.8335 24.5H14.2C13.8306 24.4996 13.4671 24.4082 13.1415 24.2338C12.8159 24.0593 12.5384 23.8073 12.3335 23.5Z" fill="#DA9C00"/>
</svg>
